<?xml version="1.0" encoding="UTF-8"?>
<svg xmlns="http://www.w3.org/2000/svg" xmlns:xlink="http://www.w3.org/1999/xlink" width="375pt" height="374.999991pt" viewBox="0 0 375 374.999991" version="1.2">
<defs>
<clipPath id="clip1">
  <path d="M 0 12.273438 L 375 12.273438 L 375 340 L 0 340 Z M 0 12.273438 "/>
</clipPath>
<clipPath id="clip2">
  <path d="M 62 17 L 314 17 L 314 362.523438 L 62 362.523438 Z M 62 17 "/>
</clipPath>
</defs>
<g id="surface1">
<g clip-path="url(#clip1)" clip-rule="nonzero">
<path style=" stroke:none;fill-rule:evenodd;fill:rgb(20.779419%,20.779419%,20.779419%);fill-opacity:1;" d="M 373.570312 61.265625 C 372.628906 60.25 371.960938 59.078125 371.5625 57.753906 L 365.015625 34.230469 C 364.890625 33.734375 364.648438 33.308594 364.285156 32.949219 C 363.925781 32.589844 363.5 32.347656 363.003906 32.222656 C 362.5625 32.125 362.167969 31.9375 361.816406 31.652344 C 361.460938 31.371094 361.1875 31.027344 360.996094 30.617188 L 358.769531 25.539062 C 358.5625 25.066406 358.246094 24.675781 357.824219 24.375 C 357.402344 24.070312 356.933594 23.898438 356.417969 23.851562 L 355.554688 23.851562 C 355.042969 23.808594 354.574219 23.640625 354.152344 23.339844 C 353.730469 23.042969 353.417969 22.660156 353.207031 22.1875 L 351.621094 18.535156 C 351.496094 18.25 351.332031 17.992188 351.125 17.765625 C 350.917969 17.535156 350.675781 17.34375 350.40625 17.195312 C 350.136719 17.042969 349.847656 16.941406 349.542969 16.882812 C 349.238281 16.828125 348.933594 16.824219 348.628906 16.867188 L 347.242188 17.050781 C 346.695312 17.128906 346.171875 17.054688 345.667969 16.824219 C 345.167969 16.597656 344.769531 16.25 344.46875 15.785156 L 343.085938 13.617188 C 342.902344 13.335938 342.675781 13.09375 342.40625 12.894531 C 342.136719 12.691406 341.84375 12.542969 341.523438 12.445312 C 341.199219 12.347656 340.871094 12.308594 340.535156 12.328125 C 340.199219 12.347656 339.878906 12.421875 339.570312 12.554688 C 334.148438 14.84375 320.171875 20.984375 314.46875 25.359375 C 312.5625 24.785156 310.613281 24.476562 308.625 24.433594 C 307.789062 24.46875 307.058594 24.761719 306.433594 25.320312 C 305.203125 26.390625 304.425781 27.730469 304.105469 29.332031 C 304.015625 29.828125 304.039062 30.316406 304.167969 30.800781 C 304.296875 31.285156 304.523438 31.71875 304.847656 32.101562 C 306.546875 33.835938 308.347656 35.453125 310.25 36.960938 C 318.867188 44.425781 322.78125 52.011719 326.9375 56.507812 C 333.546875 63.652344 344.167969 65.300781 345.453125 69.515625 C 344.351562 84.929688 331.398438 100.179688 331.398438 100.179688 C 309.167969 117.902344 307.980469 133.398438 308 136.730469 C 308.003906 136.808594 307.988281 136.882812 307.957031 136.953125 C 307.925781 137.023438 307.875 137.082031 307.816406 137.132812 C 307.753906 137.179688 307.683594 137.210938 307.605469 137.226562 C 307.53125 137.238281 307.453125 137.234375 307.378906 137.210938 C 289.808594 132.453125 273.480469 143.234375 269.847656 153.46875 C 269.804688 153.597656 269.71875 153.691406 269.597656 153.75 C 269.476562 153.808594 269.351562 153.816406 269.222656 153.769531 C 242.433594 145.019531 228.820312 162.117188 226.75 164.96875 C 226.671875 165.082031 226.570312 165.152344 226.433594 165.175781 C 226.300781 165.199219 226.175781 165.167969 226.066406 165.089844 C 224.414062 163.027344 222.496094 161.25 220.316406 159.757812 C 218.132812 158.265625 215.777344 157.128906 213.253906 156.339844 L 212.570312 146.164062 C 215.996094 139.980469 218.214844 133.390625 219.21875 126.394531 C 227.472656 119.226562 226.972656 102.308594 226.972656 102.308594 C 226.910156 101.75 226.746094 101.222656 226.488281 100.726562 C 226.230469 100.226562 225.890625 99.792969 225.46875 99.421875 C 225.046875 99.050781 224.570312 98.769531 224.042969 98.574219 C 223.519531 98.378906 222.972656 98.285156 222.414062 98.292969 C 223.066406 88.082031 222.289062 77.980469 220.082031 67.988281 C 219.800781 66.726562 219.203125 65.636719 218.296875 64.71875 C 212.953125 59.316406 205.101562 54.019531 187.46875 54.019531 C 169.839844 54.019531 162.007812 59.316406 156.644531 64.71875 C 155.738281 65.636719 155.152344 66.726562 154.875 67.988281 C 152.660156 77.980469 151.882812 88.082031 152.546875 98.292969 C 151.984375 98.285156 151.441406 98.375 150.914062 98.570312 C 150.382812 98.761719 149.910156 99.046875 149.488281 99.417969 C 149.066406 99.789062 148.726562 100.222656 148.46875 100.722656 C 148.207031 101.222656 148.050781 101.75 147.988281 102.308594 C 147.988281 102.308594 147.464844 119.289062 155.742188 126.394531 C 156.734375 133.390625 158.941406 139.980469 162.367188 146.164062 L 161.683594 156.339844 C 159.160156 157.128906 156.808594 158.265625 154.625 159.757812 C 152.441406 161.25 150.523438 163.027344 148.871094 165.089844 C 148.761719 165.167969 148.640625 165.199219 148.503906 165.175781 C 148.371094 165.152344 148.265625 165.082031 148.1875 164.96875 C 146.179688 162.117188 132.503906 145.019531 105.714844 153.769531 C 105.589844 153.808594 105.464844 153.800781 105.34375 153.742188 C 105.222656 153.683594 105.140625 153.59375 105.09375 153.46875 C 101.480469 143.292969 85.132812 132.453125 67.582031 137.210938 C 67.503906 137.234375 67.429688 137.238281 67.351562 137.222656 C 67.273438 137.210938 67.203125 137.179688 67.140625 137.132812 C 67.074219 137.082031 67.027344 137.023438 66.992188 136.953125 C 66.957031 136.882812 66.9375 136.808594 66.9375 136.730469 C 66.9375 133.398438 65.792969 117.902344 43.5625 100.179688 C 43.5625 100.179688 30.628906 84.929688 29.503906 69.515625 C 30.789062 65.300781 41.414062 63.652344 48.019531 56.507812 C 52.179688 52.011719 56.054688 44.464844 64.6875 36.960938 C 66.59375 35.449219 68.402344 33.832031 70.109375 32.101562 C 70.429688 31.714844 70.652344 31.28125 70.785156 30.796875 C 70.914062 30.316406 70.9375 29.828125 70.855469 29.332031 C 70.535156 27.722656 69.753906 26.382812 68.503906 25.320312 C 67.886719 24.765625 67.164062 24.472656 66.335938 24.433594 C 64.339844 24.476562 62.382812 24.785156 60.472656 25.359375 C 54.769531 20.984375 40.792969 14.84375 35.371094 12.554688 C 35.0625 12.421875 34.742188 12.347656 34.40625 12.328125 C 34.074219 12.308594 33.746094 12.351562 33.425781 12.445312 C 33.109375 12.542969 32.816406 12.695312 32.546875 12.894531 C 32.28125 13.097656 32.054688 13.335938 31.875 13.617188 L 30.46875 15.785156 C 30.175781 16.246094 29.777344 16.59375 29.28125 16.824219 C 28.78125 17.050781 28.261719 17.128906 27.71875 17.050781 L 26.3125 16.867188 C 26.007812 16.824219 25.699219 16.828125 25.394531 16.882812 C 25.089844 16.941406 24.804688 17.042969 24.53125 17.195312 C 24.261719 17.34375 24.023438 17.535156 23.816406 17.765625 C 23.609375 17.992188 23.441406 18.25 23.320312 18.535156 L 21.734375 22.1875 C 21.527344 22.660156 21.210938 23.046875 20.789062 23.347656 C 20.367188 23.644531 19.898438 23.816406 19.382812 23.851562 L 18.519531 23.851562 C 18.007812 23.90625 17.539062 24.082031 17.121094 24.382812 C 16.699219 24.683594 16.382812 25.070312 16.171875 25.539062 L 13.921875 30.617188 C 13.730469 31.027344 13.460938 31.375 13.109375 31.65625 C 12.753906 31.941406 12.355469 32.128906 11.914062 32.222656 C 11.421875 32.351562 11 32.597656 10.640625 32.957031 C 10.28125 33.316406 10.035156 33.738281 9.90625 34.230469 L 3.21875 57.753906 C 2.828125 59.082031 2.15625 60.253906 1.210938 61.265625 C 0.621094 61.921875 0.238281 62.683594 0.0664062 63.550781 C -0.109375 64.417969 -0.046875 65.269531 0.246094 66.101562 L 1.191406 68.730469 C 2.703125 79.109375 4.886719 89.34375 7.738281 99.4375 C 10.96875 121.335938 16.652344 153.828125 27.820312 161.117188 L 27.820312 161.898438 C 27.828125 163.4375 28.15625 164.90625 28.796875 166.304688 C 29.4375 167.703125 30.335938 168.910156 31.492188 169.925781 C 51.234375 186.824219 56.074219 198.023438 84.671875 209.585938 C 85.230469 209.808594 85.753906 210.101562 86.242188 210.453125 C 86.730469 210.808594 87.167969 211.21875 87.554688 211.683594 C 87.941406 212.148438 88.261719 212.652344 88.523438 213.199219 C 88.78125 213.742188 88.972656 214.3125 89.089844 214.90625 C 94.632812 242.402344 99.710938 275.9375 129.089844 302.832031 C 129.089844 302.832031 129.351562 310.640625 129.3125 321.175781 C 131.429688 322.632812 133.59375 324.007812 135.816406 325.300781 C 138.035156 326.59375 140.300781 327.804688 142.609375 328.925781 C 144.921875 330.046875 147.269531 331.082031 149.65625 332.027344 C 152.046875 332.972656 154.46875 333.828125 156.921875 334.589844 C 159.375 335.351562 161.851562 336.019531 164.355469 336.597656 C 166.859375 337.171875 169.378906 337.652344 171.921875 338.039062 C 174.460938 338.425781 177.011719 338.714844 179.574219 338.910156 C 182.132812 339.101562 184.699219 339.199219 187.269531 339.199219 C 189.835938 339.199219 192.402344 339.101562 194.964844 338.910156 C 197.527344 338.714844 200.078125 338.425781 202.617188 338.039062 C 205.15625 337.652344 207.679688 337.171875 210.183594 336.597656 C 212.683594 336.019531 215.164062 335.351562 217.617188 334.589844 C 220.070312 333.828125 222.492188 332.972656 224.878906 332.027344 C 227.269531 331.082031 229.617188 330.046875 231.929688 328.925781 C 234.238281 327.804688 236.503906 326.59375 238.722656 325.300781 C 240.941406 324.007812 243.109375 322.632812 245.226562 321.175781 C 245.226562 310.640625 245.445312 302.832031 245.445312 302.832031 C 274.847656 275.9375 279.925781 242.402344 285.449219 214.90625 C 285.691406 213.703125 286.203125 212.628906 286.988281 211.6875 C 287.769531 210.746094 288.730469 210.042969 289.867188 209.585938 C 318.484375 197.984375 323.324219 186.824219 343.042969 169.925781 C 344.207031 168.914062 345.113281 167.710938 345.757812 166.308594 C 346.398438 164.910156 346.726562 163.4375 346.738281 161.898438 L 346.738281 161.117188 C 357.90625 153.828125 363.585938 121.335938 366.820312 99.4375 C 369.65625 89.34375 371.832031 79.105469 373.347656 68.730469 L 374.3125 66.101562 C 374.636719 65.289062 374.734375 64.449219 374.601562 63.582031 C 374.46875 62.714844 374.125 61.941406 373.570312 61.265625 Z M 220.945312 104.074219 C 221.1875 103.132812 221.503906 102.21875 221.890625 101.324219 C 221.941406 101.148438 222.023438 100.992188 222.144531 100.855469 C 222.261719 100.71875 222.40625 100.613281 222.574219 100.539062 C 222.742188 100.464844 222.914062 100.429688 223.097656 100.433594 C 223.28125 100.4375 223.453125 100.480469 223.617188 100.5625 C 223.789062 100.65625 223.9375 100.78125 224.066406 100.929688 C 224.195312 101.078125 224.296875 101.242188 224.367188 101.425781 C 224.433594 101.609375 224.472656 101.800781 224.472656 101.996094 C 224.476562 102.195312 224.445312 102.382812 224.378906 102.570312 C 223.980469 103.613281 223.65625 104.578125 223.417969 105.320312 C 223.175781 106.0625 222.453125 106.222656 221.710938 106.082031 C 220.964844 105.941406 220.625 104.835938 220.886719 104.074219 Z M 153.410156 106.082031 C 152.648438 106.222656 151.945312 106.082031 151.683594 105.320312 C 151.421875 104.558594 151.140625 103.613281 150.738281 102.570312 C 150.671875 102.382812 150.636719 102.195312 150.636719 101.996094 C 150.636719 101.796875 150.671875 101.605469 150.742188 101.421875 C 150.8125 101.238281 150.914062 101.070312 151.042969 100.921875 C 151.175781 100.773438 151.328125 100.65625 151.503906 100.5625 C 151.664062 100.480469 151.835938 100.4375 152.019531 100.433594 C 152.199219 100.429688 152.371094 100.464844 152.539062 100.539062 C 152.703125 100.613281 152.84375 100.71875 152.964844 100.855469 C 153.082031 100.992188 153.164062 101.152344 153.210938 101.324219 C 153.601562 102.21875 153.925781 103.132812 154.175781 104.074219 C 154.375 104.835938 154.152344 105.921875 153.351562 106.0625 Z M 343.203125 50.828125 C 342.460938 50.976562 341.742188 50.890625 341.054688 50.566406 L 340.292969 50.207031 C 339.902344 50.027344 339.589844 49.753906 339.363281 49.390625 C 339.132812 49.027344 339.019531 48.628906 339.027344 48.199219 L 339.027344 47.476562 C 339.097656 46.851562 339.363281 46.332031 339.832031 45.910156 C 342.207031 43.445312 344.808594 41.25 347.644531 39.328125 C 347.742188 39.28125 347.769531 39.207031 347.722656 39.105469 C 347.675781 39.007812 347.601562 38.980469 347.503906 39.027344 C 343.257812 41.199219 339.242188 43.734375 335.453125 46.632812 C 335.171875 49.644531 338.886719 53.417969 339.851562 54.660156 C 335.800781 52.726562 332.320312 50.050781 329.410156 46.632812 C 330.773438 47.335938 332.210938 47.5625 333.726562 47.316406 C 332.769531 46.785156 331.925781 46.109375 331.199219 45.296875 C 330.46875 44.480469 329.890625 43.566406 329.46875 42.558594 C 329.46875 41.773438 329.78125 41.144531 330.414062 40.671875 C 333.972656 37.363281 337.855469 34.496094 342.058594 32.0625 C 342.242188 32.0625 342.058594 31.679688 341.898438 31.742188 C 339.046875 32.804688 327.402344 39.027344 326.175781 41.355469 C 326.09375 42.160156 326.15625 42.953125 326.367188 43.734375 C 326.578125 44.519531 326.921875 45.234375 327.402344 45.890625 C 324.929688 44.609375 322.917969 42.808594 321.375 40.492188 C 322.441406 40.820312 323.527344 40.894531 324.628906 40.710938 C 323.144531 39.789062 322.050781 38.523438 321.355469 36.917969 C 321.289062 36.484375 321.332031 36.0625 321.480469 35.648438 C 321.628906 35.234375 321.871094 34.882812 322.199219 34.589844 C 326.039062 31.328125 330.148438 28.453125 334.53125 25.960938 C 334.605469 25.902344 334.621094 25.832031 334.585938 25.746094 C 334.546875 25.660156 334.480469 25.625 334.390625 25.640625 C 329.472656 27.605469 324.847656 30.105469 320.511719 33.144531 L 319.949219 32.863281 C 319.695312 32.734375 319.464844 32.570312 319.253906 32.378906 C 319.042969 32.1875 318.855469 31.972656 318.703125 31.734375 C 318.546875 31.496094 318.421875 31.242188 318.332031 30.96875 C 318.242188 30.699219 318.1875 30.421875 318.171875 30.136719 C 318.152344 29.851562 318.171875 29.570312 318.226562 29.289062 C 318.28125 29.011719 318.371094 28.742188 318.492188 28.484375 C 318.617188 28.226562 318.773438 27.992188 318.957031 27.773438 C 319.144531 27.558594 319.355469 27.367188 319.589844 27.203125 C 325.195312 23.539062 331.144531 20.5625 337.441406 18.273438 C 337.738281 18.152344 338.046875 18.089844 338.367188 18.089844 C 338.6875 18.085938 338.996094 18.140625 339.296875 18.257812 C 339.59375 18.375 339.859375 18.539062 340.09375 18.757812 C 340.332031 18.976562 340.515625 19.230469 340.65625 19.519531 L 341.117188 20.441406 C 341.261719 20.75 341.449219 21.027344 341.683594 21.277344 C 341.914062 21.527344 342.179688 21.734375 342.476562 21.902344 C 342.773438 22.066406 343.089844 22.1875 343.421875 22.253906 C 343.753906 22.324219 344.089844 22.34375 344.429688 22.308594 L 345.675781 22.207031 C 345.988281 22.175781 346.296875 22.203125 346.597656 22.285156 C 346.902344 22.367188 347.179688 22.5 347.433594 22.683594 C 347.6875 22.871094 347.902344 23.09375 348.070312 23.359375 C 348.242188 23.621094 348.359375 23.90625 348.425781 24.214844 L 348.746094 25.921875 C 348.820312 26.3125 348.957031 26.675781 349.160156 27.015625 C 349.363281 27.359375 349.621094 27.652344 349.929688 27.902344 C 350.238281 28.152344 350.582031 28.335938 350.960938 28.460938 C 351.335938 28.589844 351.722656 28.644531 352.121094 28.628906 L 353.40625 28.628906 C 353.703125 28.621094 353.992188 28.660156 354.277344 28.753906 C 354.558594 28.84375 354.816406 28.984375 355.050781 29.167969 C 355.285156 29.351562 355.476562 29.566406 355.632812 29.820312 C 355.789062 30.074219 355.898438 30.347656 355.957031 30.636719 L 356.679688 33.847656 C 356.835938 34.492188 357.15625 35.035156 357.644531 35.484375 C 358.128906 35.933594 358.699219 36.210938 359.351562 36.316406 C 359.84375 36.402344 360.273438 36.617188 360.636719 36.960938 C 361 37.304688 361.242188 37.71875 361.359375 38.203125 C 361.429688 38.5 361.429688 38.792969 361.359375 39.085938 C 361.234375 39.929688 360.886719 40.664062 360.316406 41.292969 C 355.453125 44.632812 350.355469 47.566406 345.03125 50.105469 C 346.058594 50.5625 347.105469 50.601562 348.164062 50.226562 C 348.769531 51.59375 349.109375 53.027344 349.1875 54.519531 C 349.824219 53.550781 350.183594 52.484375 350.273438 51.328125 C 350.609375 51.085938 350.976562 50.90625 351.375 50.785156 C 351.769531 50.664062 352.175781 50.613281 352.589844 50.625 C 353.003906 50.640625 353.40625 50.722656 353.792969 50.871094 C 354.179688 51.019531 354.535156 51.226562 354.851562 51.492188 C 354.964844 51.570312 355.058594 51.667969 355.132812 51.785156 C 355.207031 51.898438 355.253906 52.027344 355.277344 52.164062 C 355.300781 52.296875 355.296875 52.433594 355.265625 52.566406 C 355.230469 52.703125 355.175781 52.824219 355.09375 52.933594 C 353.542969 54.851562 351.664062 56.347656 349.449219 57.429688 C 349.273438 57.507812 349.085938 57.523438 348.898438 57.480469 C 348.707031 57.433594 348.550781 57.339844 348.425781 57.191406 C 346.402344 55.28125 344.640625 53.152344 343.144531 50.808594 Z M 235.527344 178.335938 C 235.605469 178.363281 235.671875 178.40625 235.726562 178.46875 C 235.78125 178.527344 235.816406 178.601562 235.832031 178.679688 C 235.847656 178.761719 235.84375 178.839844 235.816406 178.917969 C 235.792969 178.996094 235.75 179.0625 235.6875 179.117188 C 231.570312 182.691406 223.375 183.132812 223.375 183.132812 C 217.953125 180.582031 212.851562 173.4375 211.6875 166.914062 C 211.679688 166.835938 211.6875 166.761719 211.71875 166.683594 C 211.746094 166.609375 211.792969 166.546875 211.851562 166.496094 C 211.910156 166.441406 211.980469 166.40625 212.058594 166.390625 C 212.136719 166.371094 212.214844 166.375 212.292969 166.394531 C 214.117188 167.015625 233.136719 177.492188 235.464844 178.316406 Z M 159.214844 69.535156 C 165.921875 59.097656 180.359375 58.554688 187.570312 58.535156 C 194.78125 58.515625 209.21875 59.097656 215.945312 69.535156 C 215.996094 69.636719 215.980469 69.722656 215.894531 69.796875 C 215.808594 69.871094 215.71875 69.878906 215.625 69.816406 C 213.699219 68.167969 211.476562 67.203125 208.957031 66.925781 C 208.832031 66.878906 208.742188 66.917969 208.695312 67.046875 C 208.648438 67.171875 208.691406 67.257812 208.816406 67.304688 C 210.078125 68.105469 211.042969 69.175781 211.707031 70.515625 C 211.730469 70.59375 211.714844 70.664062 211.664062 70.722656 C 211.613281 70.785156 211.546875 70.808594 211.46875 70.796875 C 201.425781 68.933594 195.523438 76.136719 187.570312 76.136719 C 179.617188 76.136719 173.714844 68.933594 163.671875 70.796875 C 163.59375 70.808594 163.527344 70.785156 163.476562 70.722656 C 163.425781 70.664062 163.410156 70.59375 163.433594 70.515625 C 164.101562 69.179688 165.0625 68.109375 166.324219 67.304688 C 166.449219 67.257812 166.492188 67.171875 166.445312 67.046875 C 166.398438 66.917969 166.308594 66.878906 166.183594 66.925781 C 163.664062 67.203125 161.441406 68.167969 159.515625 69.816406 C 159.414062 69.941406 159.300781 69.957031 159.175781 69.855469 C 159.046875 69.753906 159.035156 69.640625 159.132812 69.515625 Z M 161.082031 128.160156 C 161.054688 128.089844 161.070312 128.035156 161.128906 127.992188 C 161.1875 127.949219 161.246094 127.953125 161.304688 128 C 162.785156 129.066406 164.410156 129.8125 166.183594 130.246094 C 166.296875 130.253906 166.355469 130.199219 166.363281 130.085938 C 166.371094 129.972656 166.316406 129.914062 166.203125 129.90625 C 165.488281 129.367188 164.808594 128.785156 164.171875 128.15625 C 163.539062 127.527344 162.945312 126.859375 162.402344 126.148438 C 161.855469 125.4375 161.363281 124.695312 160.921875 123.917969 C 160.476562 123.140625 160.089844 122.335938 159.753906 121.503906 C 159.421875 120.675781 159.148438 119.824219 158.929688 118.957031 C 158.714844 118.089844 158.558594 117.210938 158.460938 116.320312 C 158.363281 115.429688 158.328125 114.539062 158.351562 113.644531 C 158.378906 112.75 158.464844 111.863281 158.613281 110.980469 C 160.621094 100.179688 159.035156 85.207031 159.035156 85.207031 C 167.066406 74.089844 175.902344 84.304688 187.46875 84.304688 C 199.035156 84.304688 207.972656 74.089844 215.90625 85.207031 C 215.90625 85.207031 214.359375 100.179688 216.347656 110.980469 C 216.492188 111.863281 216.578125 112.75 216.601562 113.644531 C 216.625 114.539062 216.589844 115.433594 216.488281 116.320312 C 216.390625 117.210938 216.234375 118.089844 216.015625 118.957031 C 215.796875 119.824219 215.523438 120.675781 215.1875 121.503906 C 214.855469 122.335938 214.464844 123.140625 214.023438 123.917969 C 213.578125 124.695312 213.085938 125.4375 212.539062 126.148438 C 211.992188 126.859375 211.402344 127.527344 210.765625 128.15625 C 210.128906 128.785156 209.453125 129.367188 208.738281 129.90625 C 208.652344 129.945312 208.628906 130.007812 208.667969 130.097656 C 208.707031 130.183594 208.769531 130.207031 208.855469 130.167969 C 210.628906 129.734375 212.257812 128.984375 213.738281 127.917969 C 213.792969 127.882812 213.851562 127.886719 213.90625 127.921875 C 213.964844 127.960938 213.988281 128.011719 213.976562 128.078125 C 213.351562 131.75 212.460938 135.355469 211.308594 138.898438 C 210.769531 140.484375 210.015625 141.964844 209.046875 143.332031 C 208.074219 144.699219 206.925781 145.894531 205.605469 146.925781 C 202.566406 149.363281 199.753906 152.039062 197.167969 154.953125 C 197.167969 154.953125 194.519531 158.34375 187.46875 158.34375 C 180.421875 158.34375 177.769531 154.953125 177.769531 154.953125 C 175.191406 152.035156 172.378906 149.359375 169.335938 146.925781 C 168.015625 145.894531 166.871094 144.695312 165.902344 143.328125 C 164.933594 141.960938 164.183594 140.484375 163.652344 138.898438 C 162.5 135.378906 161.613281 131.792969 161 128.140625 Z M 205.503906 159.027344 C 202.851562 170.667969 194.78125 188.832031 187.570312 190.738281 C 180.382812 188.832031 172.308594 170.667969 169.65625 159.027344 C 169.640625 158.847656 169.714844 158.726562 169.878906 158.65625 C 170.046875 158.589844 170.1875 158.625 170.300781 158.765625 C 174.195312 165.128906 181.808594 170.167969 187.570312 170.167969 C 193.332031 170.167969 200.964844 165.128906 204.839844 158.765625 C 204.953125 158.679688 205.070312 158.664062 205.203125 158.71875 C 205.332031 158.769531 205.40625 158.867188 205.421875 159.007812 Z M 162.828125 166.453125 C 162.90625 166.429688 162.984375 166.421875 163.066406 166.4375 C 163.148438 166.453125 163.21875 166.488281 163.28125 166.542969 C 163.34375 166.597656 163.386719 166.660156 163.414062 166.738281 C 163.441406 166.816406 163.445312 166.894531 163.433594 166.976562 C 162.285156 173.5 157.167969 180.644531 151.765625 183.191406 C 151.765625 183.191406 143.550781 182.691406 139.453125 179.179688 C 139.390625 179.125 139.347656 179.058594 139.320312 178.984375 C 139.292969 178.90625 139.285156 178.828125 139.300781 178.746094 C 139.316406 178.667969 139.347656 178.59375 139.402344 178.53125 C 139.453125 178.46875 139.519531 178.425781 139.59375 178.394531 C 141.84375 177.492188 160.882812 167.015625 162.75 166.433594 Z M 107.121094 160.433594 C 118.488281 153.808594 134.714844 156.417969 141.082031 168.359375 C 141.082031 171.914062 127.40625 175.484375 117.121094 170.207031 C 116.929688 170.113281 116.761719 170.148438 116.621094 170.308594 C 116.488281 170.476562 116.488281 170.640625 116.621094 170.808594 C 119.253906 174.410156 122.238281 177.695312 125.578125 180.65625 C 128.914062 183.617188 132.53125 186.1875 136.421875 188.371094 C 139.578125 189.976562 142.878906 191.191406 146.324219 192.015625 C 149.769531 192.839844 153.261719 193.25 156.804688 193.25 C 172.148438 193.25 180.902344 193.488281 186.144531 197.421875 C 186.574219 197.734375 187.058594 197.890625 187.589844 197.882812 C 188.125 197.890625 188.605469 197.738281 189.035156 197.421875 C 194.277344 193.410156 203.09375 193.25 218.394531 193.25 C 221.933594 193.25 225.425781 192.839844 228.867188 192.015625 C 232.308594 191.191406 235.605469 189.976562 238.757812 188.371094 C 242.652344 186.1875 246.265625 183.617188 249.605469 180.65625 C 252.941406 177.695312 255.925781 174.410156 258.558594 170.808594 C 258.695312 170.640625 258.695312 170.476562 258.558594 170.308594 C 258.417969 170.15625 258.25 170.121094 258.058594 170.207031 C 247.753906 175.484375 234.101562 171.914062 234.101562 168.359375 C 240.445312 156.320312 256.691406 153.808594 268.039062 160.433594 C 267.589844 165.800781 268.160156 171.058594 269.746094 176.207031 C 266.011719 179.945312 262.851562 184.113281 260.261719 188.714844 C 257.667969 193.3125 255.742188 198.175781 254.484375 203.304688 C 254.4375 203.472656 254.328125 203.570312 254.15625 203.605469 C 253.984375 203.636719 253.84375 203.582031 253.738281 203.445312 C 252.386719 200.9375 251.675781 198.261719 251.613281 195.414062 C 251.589844 195.238281 251.492188 195.132812 251.316406 195.101562 C 251.136719 195.070312 251.007812 195.132812 250.929688 195.296875 C 249.292969 198.585938 248.230469 202.054688 247.75 205.699219 C 247.269531 209.34375 247.390625 212.964844 248.117188 216.570312 C 251.167969 226.785156 247.273438 236.941406 237.011719 239.792969 C 225.566406 242.960938 210.324219 241.496094 201.066406 239.792969 C 200.046875 239.605469 199.070312 239.300781 198.128906 238.871094 C 197.1875 238.441406 196.316406 237.902344 195.507812 237.257812 C 194.703125 236.609375 193.988281 235.875 193.363281 235.050781 C 192.742188 234.226562 192.230469 233.335938 191.828125 232.386719 C 190.421875 229.074219 190.242188 214.625 191.566406 211.472656 C 192.613281 209.273438 194.199219 207.582031 196.324219 206.394531 C 196.417969 206.335938 196.480469 206.25 196.511719 206.144531 C 196.542969 206.035156 196.535156 205.933594 196.488281 205.832031 C 195.742188 204.308594 192.992188 203.042969 187.589844 202.921875 C 182.1875 202.800781 179.4375 204.308594 178.695312 205.832031 C 178.652344 205.9375 178.648438 206.039062 178.683594 206.144531 C 178.714844 206.253906 178.78125 206.335938 178.875 206.394531 C 180.996094 207.582031 182.574219 209.277344 183.613281 211.472656 C 184.9375 214.625 184.757812 229.074219 183.351562 232.386719 C 182.953125 233.339844 182.441406 234.226562 181.820312 235.054688 C 181.195312 235.878906 180.480469 236.613281 179.675781 237.261719 C 178.867188 237.90625 177.996094 238.445312 177.054688 238.875 C 176.113281 239.300781 175.132812 239.609375 174.117188 239.792969 C 164.878906 241.476562 149.617188 242.941406 138.1875 239.792969 C 127.90625 236.941406 124.03125 226.785156 127.082031 216.570312 C 127.808594 212.964844 127.925781 209.339844 127.441406 205.695312 C 126.957031 202.050781 125.894531 198.585938 124.25 195.296875 C 124.1875 195.113281 124.058594 195.039062 123.871094 195.074219 C 123.679688 195.109375 123.585938 195.222656 123.589844 195.414062 C 123.523438 198.261719 122.816406 200.9375 121.460938 203.445312 C 121.359375 203.597656 121.214844 203.660156 121.03125 203.625 C 120.851562 203.59375 120.738281 203.484375 120.699219 203.304688 C 119.441406 198.175781 117.515625 193.3125 114.925781 188.710938 C 112.332031 184.109375 109.171875 179.941406 105.433594 176.207031 C 106.980469 171.074219 107.515625 165.835938 107.042969 160.492188 Z M 13.582031 38.222656 C 13.703125 37.738281 13.945312 37.328125 14.308594 36.984375 C 14.671875 36.644531 15.097656 36.429688 15.589844 36.335938 C 16.242188 36.234375 16.8125 35.957031 17.300781 35.507812 C 17.785156 35.058594 18.105469 34.511719 18.257812 33.867188 L 18.984375 30.65625 C 19.042969 30.367188 19.152344 30.097656 19.308594 29.84375 C 19.464844 29.59375 19.660156 29.375 19.894531 29.191406 C 20.125 29.007812 20.382812 28.871094 20.664062 28.777344 C 20.949219 28.683594 21.238281 28.640625 21.53125 28.648438 L 22.816406 28.648438 C 23.214844 28.664062 23.605469 28.609375 23.984375 28.484375 C 24.359375 28.359375 24.707031 28.171875 25.015625 27.921875 C 25.328125 27.675781 25.585938 27.378906 25.792969 27.039062 C 26 26.699219 26.136719 26.332031 26.210938 25.941406 L 26.535156 24.234375 C 26.597656 23.929688 26.710938 23.644531 26.882812 23.378906 C 27.050781 23.117188 27.261719 22.890625 27.511719 22.707031 C 27.765625 22.519531 28.042969 22.386719 28.34375 22.304688 C 28.644531 22.222656 28.953125 22.195312 29.265625 22.226562 L 30.507812 22.328125 C 30.847656 22.363281 31.1875 22.34375 31.519531 22.273438 C 31.855469 22.203125 32.171875 22.085938 32.46875 21.917969 C 32.769531 21.753906 33.035156 21.542969 33.269531 21.296875 C 33.503906 21.046875 33.695312 20.769531 33.84375 20.460938 L 34.285156 19.539062 C 34.425781 19.25 34.613281 18.996094 34.851562 18.777344 C 35.085938 18.558594 35.355469 18.390625 35.65625 18.277344 C 35.957031 18.160156 36.265625 18.105469 36.589844 18.109375 C 36.910156 18.109375 37.21875 18.171875 37.519531 18.292969 C 43.808594 20.582031 49.753906 23.558594 55.351562 27.226562 C 55.585938 27.386719 55.796875 27.578125 55.980469 27.792969 C 56.167969 28.011719 56.320312 28.25 56.445312 28.503906 C 56.570312 28.761719 56.660156 29.03125 56.714844 29.308594 C 56.769531 29.589844 56.789062 29.871094 56.769531 30.15625 C 56.75 30.441406 56.695312 30.71875 56.605469 30.992188 C 56.515625 31.261719 56.394531 31.515625 56.238281 31.753906 C 56.082031 31.992188 55.898438 32.210938 55.6875 32.402344 C 55.476562 32.59375 55.242188 32.753906 54.988281 32.886719 L 54.449219 33.167969 C 50.109375 30.136719 45.480469 27.632812 40.570312 25.660156 C 40.476562 25.644531 40.414062 25.679688 40.375 25.765625 C 40.335938 25.851562 40.355469 25.921875 40.429688 25.980469 C 44.808594 28.476562 48.917969 31.355469 52.761719 34.609375 C 53.085938 34.90625 53.320312 35.257812 53.472656 35.671875 C 53.621094 36.082031 53.664062 36.503906 53.605469 36.9375 C 52.902344 38.539062 51.808594 39.804688 50.332031 40.734375 C 51.433594 40.914062 52.515625 40.839844 53.582031 40.511719 C 52.03125 42.820312 50.023438 44.617188 47.558594 45.910156 C 48.035156 45.257812 48.378906 44.539062 48.589844 43.757812 C 48.804688 42.972656 48.867188 42.179688 48.785156 41.375 C 47.558594 39.046875 35.890625 32.824219 33.039062 31.761719 C 32.945312 31.746094 32.882812 31.78125 32.84375 31.867188 C 32.804688 31.953125 32.824219 32.023438 32.898438 32.082031 C 37.097656 34.527344 40.980469 37.394531 44.546875 40.691406 C 44.84375 40.914062 45.074219 41.191406 45.238281 41.523438 C 45.402344 41.855469 45.480469 42.207031 45.46875 42.578125 C 45.054688 43.59375 44.480469 44.507812 43.75 45.324219 C 43.019531 46.140625 42.175781 46.808594 41.214844 47.335938 C 42.726562 47.582031 44.167969 47.355469 45.53125 46.652344 C 42.625 50.074219 39.144531 52.75 35.089844 54.683594 C 36.070312 53.378906 39.789062 49.605469 39.484375 46.652344 C 35.703125 43.75 31.6875 41.214844 27.4375 39.046875 C 27.351562 39.035156 27.289062 39.066406 27.25 39.140625 C 27.210938 39.214844 27.21875 39.285156 27.277344 39.347656 C 30.113281 41.273438 32.726562 43.464844 35.109375 45.929688 C 35.570312 46.351562 35.832031 46.875 35.890625 47.496094 L 35.890625 48.21875 C 35.898438 48.648438 35.789062 49.046875 35.558594 49.410156 C 35.328125 49.773438 35.019531 50.046875 34.625 50.226562 L 33.84375 50.585938 C 33.164062 50.910156 32.453125 50.996094 31.714844 50.847656 C 30.195312 53.199219 28.414062 55.332031 26.371094 57.25 C 26.246094 57.394531 26.085938 57.492188 25.898438 57.535156 C 25.710938 57.578125 25.527344 57.566406 25.347656 57.492188 C 23.128906 56.410156 21.242188 54.914062 19.683594 52.996094 C 19.609375 52.882812 19.554688 52.757812 19.523438 52.625 C 19.496094 52.488281 19.496094 52.355469 19.519531 52.21875 C 19.542969 52.085938 19.59375 51.957031 19.667969 51.84375 C 19.742188 51.726562 19.832031 51.628906 19.945312 51.550781 C 20.265625 51.285156 20.617188 51.078125 21.003906 50.929688 C 21.394531 50.78125 21.792969 50.699219 22.207031 50.6875 C 22.621094 50.671875 23.027344 50.726562 23.425781 50.84375 C 23.820312 50.964844 24.1875 51.148438 24.523438 51.390625 C 24.613281 52.546875 24.976562 53.609375 25.609375 54.582031 C 25.667969 53.082031 26.011719 51.652344 26.632812 50.285156 C 27.695312 50.660156 28.738281 50.621094 29.765625 50.164062 C 24.433594 47.628906 19.335938 44.691406 14.464844 41.355469 C 13.921875 41.011719 13.582031 39.769531 13.441406 39.148438 C 13.40625 38.828125 13.453125 38.519531 13.582031 38.222656 Z M 13.097656 64.316406 C 13.144531 64.132812 13.261719 64.039062 13.449219 64.039062 C 13.640625 64.039062 13.757812 64.132812 13.800781 64.316406 C 16.453125 82.519531 23.320312 97.691406 29.667969 104.757812 C 29.804688 104.878906 29.949219 104.886719 30.101562 104.789062 C 30.253906 104.6875 30.304688 104.550781 30.25 104.375 C 26.289062 95.140625 24.242188 85.5 24.105469 75.453125 C 24.113281 75.253906 24.214844 75.140625 24.414062 75.113281 C 24.609375 75.085938 24.742188 75.167969 24.804688 75.355469 C 26.535156 80.953125 31.957031 96.929688 39.847656 105.722656 C 39.847656 105.722656 59.265625 116.78125 60.109375 135.527344 C 60.132812 135.90625 60.117188 136.285156 60.058594 136.664062 C 60.003906 137.039062 59.90625 137.40625 59.769531 137.765625 C 59.636719 138.121094 59.464844 138.457031 59.253906 138.777344 C 59.046875 139.097656 58.808594 139.394531 58.535156 139.664062 C 58.265625 139.929688 57.96875 140.167969 57.648438 140.375 C 57.328125 140.578125 56.988281 140.75 56.628906 140.882812 C 56.269531 141.015625 55.902344 141.109375 55.523438 141.164062 C 55.148438 141.21875 54.769531 141.230469 54.386719 141.207031 C 49.910156 140.925781 43.382812 137.511719 36.613281 123.964844 C 36.589844 123.875 36.535156 123.804688 36.453125 123.761719 C 36.371094 123.714844 36.285156 123.703125 36.195312 123.726562 C 36.101562 123.753906 36.035156 123.804688 35.988281 123.886719 C 35.941406 123.96875 35.929688 124.054688 35.953125 124.144531 C 36.035156 125.625 36.195312 127.097656 36.433594 128.5625 C 36.460938 128.648438 36.457031 128.738281 36.417969 128.820312 C 36.378906 128.90625 36.316406 128.96875 36.230469 129.003906 C 36.144531 129.039062 36.058594 129.042969 35.96875 129.011719 C 35.882812 128.980469 35.816406 128.925781 35.769531 128.84375 C 13.582031 99.800781 12.796875 67.6875 13.078125 64.253906 Z M 93.910156 195.636719 C 74.25 191.179688 53.5625 175.726562 43.082031 164.1875 C 42.96875 164.042969 42.832031 164.011719 42.667969 164.089844 C 42.503906 164.164062 42.441406 164.289062 42.480469 164.46875 C 43.070312 167.710938 44.1875 170.761719 45.832031 173.621094 C 45.890625 173.6875 45.917969 173.769531 45.914062 173.859375 C 45.90625 173.953125 45.871094 174.027344 45.804688 174.089844 C 45.734375 174.152344 45.65625 174.183594 45.566406 174.179688 C 45.472656 174.179688 45.394531 174.144531 45.332031 174.082031 C 44.125 173.226562 42.980469 172.304688 41.886719 171.308594 C 40.796875 170.316406 39.773438 169.257812 38.8125 168.140625 C 37.851562 167.019531 36.960938 165.847656 36.144531 164.617188 C 35.328125 163.390625 34.585938 162.117188 33.925781 160.796875 C 33.265625 159.476562 32.6875 158.125 32.191406 156.734375 C 31.695312 155.34375 31.289062 153.929688 30.964844 152.488281 C 30.644531 151.050781 30.410156 149.597656 30.269531 148.128906 C 30.125 146.660156 30.070312 145.1875 30.109375 143.714844 C 30.109375 143.234375 30.199219 142.769531 30.378906 142.324219 C 30.554688 141.875 30.808594 141.476562 31.140625 141.125 C 31.46875 140.777344 31.851562 140.5 32.289062 140.292969 C 32.722656 140.089844 33.183594 139.972656 33.664062 139.941406 C 36.144531 139.871094 38.527344 140.324219 40.8125 141.304688 C 44.304688 147.746094 48.894531 153.273438 54.585938 157.882812 C 57.578125 172.65625 76.679688 186.746094 94.25 194.691406 C 94.375 194.742188 94.46875 194.828125 94.523438 194.953125 C 94.578125 195.078125 94.582031 195.203125 94.539062 195.332031 C 94.492188 195.457031 94.40625 195.550781 94.285156 195.613281 C 94.164062 195.671875 94.039062 195.679688 93.910156 195.636719 Z M 96.578125 172.675781 C 95.40625 170.78125 94.046875 169.03125 92.492188 167.433594 C 90.9375 165.835938 89.230469 164.425781 87.367188 163.203125 C 85.503906 161.976562 83.53125 160.96875 81.445312 160.179688 C 79.363281 159.386719 77.21875 158.828125 75.011719 158.507812 C 66.296875 156.820312 61.234375 154.050781 58.703125 149.394531 C 61.757812 146.023438 67.5625 143.132812 78.464844 143.734375 C 85.894531 144.136719 95.675781 148.390625 99.691406 155.316406 C 99.769531 155.484375 99.734375 155.628906 99.589844 155.746094 C 99.445312 155.863281 99.300781 155.867188 99.148438 155.757812 C 96.679688 153.371094 93.78125 151.753906 90.453125 150.898438 C 90.277344 150.871094 90.152344 150.9375 90.074219 151.097656 C 89.996094 151.257812 90.023438 151.402344 90.152344 151.523438 C 95.3125 155.355469 100.195312 165.570312 97.824219 172.535156 C 97.726562 172.816406 97.53125 172.976562 97.238281 173.007812 C 96.941406 173.039062 96.714844 172.929688 96.558594 172.675781 Z M 108.207031 254.605469 C 108.238281 254.746094 108.222656 254.886719 108.152344 255.015625 C 108.082031 255.148438 107.980469 255.238281 107.84375 255.292969 C 107.707031 255.351562 107.566406 255.351562 107.425781 255.304688 C 107.285156 255.257812 107.179688 255.171875 107.101562 255.046875 C 99.570312 242.300781 97.882812 221.246094 97.382812 213.921875 C 101.34375 214.914062 105.1875 216.253906 108.910156 217.933594 C 107.421875 228.472656 105.738281 243.644531 108.1875 254.605469 Z M 137.324219 294.644531 C 137.3125 294.753906 137.257812 294.839844 137.164062 294.902344 C 137.070312 294.960938 136.96875 294.976562 136.863281 294.945312 C 113.75 287.320312 118.648438 258.617188 120.214844 240.976562 C 120.222656 240.8125 120.304688 240.707031 120.460938 240.660156 C 120.621094 240.613281 120.746094 240.660156 120.839844 240.796875 C 123.300781 243.667969 126.277344 245.828125 129.773438 247.277344 C 126.039062 271.644531 138.46875 283.546875 137.304688 294.644531 Z M 184.277344 310.320312 C 181.90625 309.496094 171.265625 306.304688 162.507812 311.140625 C 159.253906 312.769531 158.492188 316.5625 158.492188 318.910156 C 158.464844 319.085938 158.363281 319.183594 158.1875 319.210938 C 158.011719 319.238281 157.886719 319.167969 157.808594 319.011719 C 157.429688 318.074219 157.160156 317.105469 157.007812 316.105469 C 156.855469 315.105469 156.820312 314.101562 156.90625 313.09375 C 156.988281 312.085938 157.1875 311.101562 157.503906 310.140625 C 157.820312 309.179688 158.242188 308.269531 158.773438 307.410156 C 163.53125 301.386719 184.035156 300.183594 184.738281 309.957031 C 184.742188 310.082031 184.695312 310.179688 184.601562 310.257812 C 184.503906 310.332031 184.394531 310.355469 184.277344 310.320312 Z M 162.589844 276.582031 C 165.378906 270.859375 170.339844 267.148438 176.96875 268.191406 C 178.386719 268.371094 179.6875 268.859375 180.871094 269.660156 C 182.054688 270.457031 182.996094 271.480469 183.695312 272.726562 C 184.195312 273.667969 184.476562 274.671875 184.539062 275.738281 C 184.539062 275.800781 184.527344 275.855469 184.496094 275.910156 C 184.46875 275.964844 184.429688 276.011719 184.378906 276.046875 C 184.328125 276.078125 184.273438 276.101562 184.210938 276.105469 C 184.152344 276.113281 184.09375 276.101562 184.035156 276.078125 C 178.613281 273.550781 164.65625 274.191406 160.320312 295.425781 C 160.273438 295.613281 160.15625 295.703125 159.96875 295.703125 C 159.777344 295.703125 159.660156 295.613281 159.617188 295.425781 C 158.632812 291.511719 159.554688 282.941406 162.667969 276.582031 Z M 217.03125 319.011719 C 216.964844 319.199219 216.835938 319.277344 216.636719 319.25 C 216.441406 319.222656 216.335938 319.109375 216.328125 318.910156 C 216.328125 316.5625 215.5625 312.769531 212.3125 311.140625 C 203.554688 306.285156 192.914062 309.496094 190.542969 310.320312 C 190.421875 310.355469 190.316406 310.332031 190.21875 310.257812 C 190.121094 310.179688 190.074219 310.082031 190.082031 309.957031 C 190.785156 300.183594 211.308594 301.347656 216.066406 307.410156 C 216.601562 308.269531 217.027344 309.175781 217.347656 310.136719 C 217.667969 311.09375 217.875 312.078125 217.964844 313.085938 C 218.054688 314.09375 218.027344 315.097656 217.886719 316.097656 C 217.742188 317.097656 217.480469 318.070312 217.109375 319.011719 Z M 190.300781 275.738281 C 190.347656 274.671875 190.621094 273.667969 191.125 272.726562 C 191.820312 271.480469 192.761719 270.457031 193.949219 269.660156 C 195.132812 268.859375 196.433594 268.371094 197.851562 268.191406 C 204.5 267.148438 209.4375 270.859375 212.230469 276.582031 C 215.34375 282.941406 216.246094 291.511719 215.203125 295.445312 C 215.203125 295.542969 215.167969 295.621094 215.101562 295.6875 C 215.035156 295.753906 214.957031 295.789062 214.863281 295.789062 C 214.765625 295.789062 214.6875 295.753906 214.621094 295.6875 C 214.554688 295.621094 214.519531 295.542969 214.519531 295.445312 C 210.183594 274.210938 196.207031 273.570312 190.804688 276.097656 C 190.746094 276.125 190.683594 276.132812 190.621094 276.125 C 190.558594 276.117188 190.5 276.097656 190.449219 276.058594 C 190.398438 276.023438 190.359375 275.976562 190.332031 275.917969 C 190.308594 275.859375 190.296875 275.800781 190.300781 275.738281 Z M 228.054688 284.386719 C 226.46875 280.375 216.007812 257.210938 187.410156 257.210938 C 158.8125 257.210938 148.429688 280.433594 146.84375 284.449219 C 146.8125 284.5 146.765625 284.539062 146.714844 284.566406 C 146.660156 284.59375 146.601562 284.609375 146.542969 284.609375 C 146.480469 284.609375 146.425781 284.59375 146.371094 284.566406 C 146.320312 284.539062 146.273438 284.5 146.242188 284.449219 C 144.375 282.054688 142.769531 279.5 141.425781 276.785156 C 140.078125 274.066406 139.019531 271.242188 138.246094 268.308594 C 137.472656 265.378906 137 262.398438 136.832031 259.371094 C 136.664062 256.34375 136.800781 253.328125 137.246094 250.328125 C 148.089844 252.9375 163.210938 251.695312 180.703125 248.320312 C 180.9375 248.269531 181.167969 248.28125 181.398438 248.359375 C 181.625 248.441406 181.816406 248.574219 181.96875 248.761719 C 182.121094 248.984375 182.289062 249.195312 182.472656 249.394531 C 182.652344 249.597656 182.84375 249.785156 183.046875 249.960938 C 183.25 250.140625 183.460938 250.304688 183.683594 250.457031 C 183.90625 250.609375 184.136719 250.746094 184.378906 250.871094 C 184.617188 250.996094 184.863281 251.105469 185.117188 251.199219 C 185.367188 251.296875 185.625 251.375 185.886719 251.4375 C 186.148438 251.503906 186.414062 251.550781 186.683594 251.582031 C 186.953125 251.617188 187.21875 251.632812 187.488281 251.632812 C 187.761719 251.632812 188.027344 251.617188 188.296875 251.582031 C 188.566406 251.550781 188.828125 251.503906 189.09375 251.4375 C 189.355469 251.375 189.609375 251.296875 189.863281 251.199219 C 190.117188 251.105469 190.363281 250.996094 190.601562 250.871094 C 190.839844 250.746094 191.074219 250.609375 191.296875 250.457031 C 191.519531 250.304688 191.730469 250.140625 191.933594 249.960938 C 192.136719 249.785156 192.328125 249.597656 192.507812 249.394531 C 192.691406 249.195312 192.859375 248.984375 193.011719 248.761719 C 193.171875 248.570312 193.367188 248.4375 193.601562 248.355469 C 193.835938 248.277344 194.074219 248.265625 194.316406 248.320312 C 211.808594 251.714844 226.910156 252.957031 237.753906 250.328125 C 238.203125 253.328125 238.34375 256.34375 238.179688 259.371094 C 238.011719 262.398438 237.542969 265.382812 236.769531 268.3125 C 235.996094 271.246094 234.933594 274.070312 233.585938 276.789062 C 232.238281 279.507812 230.628906 282.058594 228.757812 284.449219 C 228.726562 284.503906 228.683594 284.546875 228.625 284.578125 C 228.570312 284.609375 228.511719 284.625 228.445312 284.625 C 228.382812 284.625 228.324219 284.609375 228.269531 284.578125 C 228.210938 284.546875 228.167969 284.503906 228.136719 284.449219 Z M 238.097656 294.945312 C 237.988281 294.984375 237.886719 294.976562 237.789062 294.914062 C 237.691406 294.847656 237.640625 294.757812 237.632812 294.644531 C 236.449219 283.546875 248.878906 271.644531 245.183594 247.277344 C 248.671875 245.824219 251.644531 243.664062 254.101562 240.796875 C 254.203125 240.667969 254.328125 240.628906 254.484375 240.671875 C 254.636719 240.714844 254.726562 240.816406 254.746094 240.976562 C 256.351562 258.617188 261.269531 287.320312 238.15625 294.945312 Z M 267.835938 255.046875 C 267.777344 255.195312 267.671875 255.300781 267.523438 255.363281 C 267.375 255.425781 267.222656 255.425781 267.074219 255.367188 C 266.925781 255.304688 266.820312 255.199219 266.753906 255.050781 C 266.691406 254.902344 266.691406 254.753906 266.753906 254.605469 C 269.203125 243.644531 267.515625 228.511719 266.03125 217.875 C 269.753906 216.191406 273.59375 214.855469 277.558594 213.859375 C 277.117188 221.246094 275.449219 242.300781 267.898438 255.046875 Z M 277.136719 172.535156 C 274.6875 165.609375 279.644531 155.355469 284.785156 151.523438 C 284.917969 151.402344 284.945312 151.257812 284.867188 151.097656 C 284.789062 150.9375 284.660156 150.871094 284.484375 150.898438 C 281.164062 151.753906 278.273438 153.371094 275.808594 155.757812 C 275.660156 155.867188 275.511719 155.863281 275.367188 155.746094 C 275.222656 155.628906 275.191406 155.484375 275.269531 155.316406 C 279.285156 148.390625 289.0625 144.136719 296.472656 143.734375 C 307.398438 143.132812 313.183594 146.023438 316.253906 149.394531 C 313.703125 154.050781 308.664062 156.820312 299.949219 158.507812 C 297.742188 158.828125 295.59375 159.386719 293.507812 160.179688 C 291.425781 160.96875 289.449219 161.976562 287.585938 163.203125 C 285.71875 164.425781 284.007812 165.835938 282.453125 167.433594 C 280.898438 169.03125 279.535156 170.78125 278.359375 172.675781 C 278.285156 172.769531 278.195312 172.84375 278.082031 172.886719 C 277.972656 172.933594 277.859375 172.949219 277.738281 172.9375 C 277.617188 172.921875 277.511719 172.878906 277.414062 172.808594 C 277.316406 172.734375 277.246094 172.644531 277.195312 172.535156 Z M 329.609375 174.082031 C 329.542969 174.144531 329.46875 174.179688 329.375 174.179688 C 329.285156 174.183594 329.203125 174.152344 329.136719 174.089844 C 329.070312 174.027344 329.035156 173.953125 329.027344 173.859375 C 329.023438 173.769531 329.046875 173.6875 329.109375 173.621094 C 330.75 170.761719 331.867188 167.710938 332.460938 164.46875 C 332.5 164.289062 332.433594 164.164062 332.269531 164.085938 C 332.109375 164.011719 331.96875 164.042969 331.859375 164.1875 C 321.394531 175.726562 300.691406 191.179688 281.03125 195.636719 C 280.90625 195.664062 280.789062 195.644531 280.679688 195.582031 C 280.570312 195.519531 280.492188 195.425781 280.453125 195.308594 C 280.410156 195.1875 280.414062 195.070312 280.464844 194.953125 C 280.511719 194.835938 280.59375 194.75 280.710938 194.691406 C 298.242188 186.664062 317.378906 172.617188 320.371094 157.882812 C 326.074219 153.277344 330.675781 147.75 334.167969 141.304688 C 336.449219 140.324219 338.832031 139.871094 341.316406 139.941406 C 341.796875 139.976562 342.25 140.097656 342.683594 140.304688 C 343.113281 140.511719 343.496094 140.789062 343.820312 141.136719 C 344.148438 141.488281 344.402344 141.882812 344.578125 142.328125 C 344.757812 142.773438 344.847656 143.234375 344.851562 143.714844 C 344.890625 145.1875 344.835938 146.65625 344.691406 148.125 C 344.550781 149.589844 344.320312 151.042969 343.996094 152.480469 C 343.675781 153.917969 343.269531 155.332031 342.777344 156.71875 C 342.28125 158.109375 341.707031 159.460938 341.046875 160.78125 C 340.386719 162.097656 339.652344 163.371094 338.835938 164.597656 C 338.019531 165.824219 337.132812 167 336.175781 168.117188 C 335.214844 169.238281 334.191406 170.292969 333.105469 171.289062 C 332.015625 172.28125 330.871094 173.207031 329.667969 174.0625 Z M 339.1875 128.761719 C 339.070312 128.917969 338.921875 128.960938 338.738281 128.886719 C 338.558594 128.808594 338.480469 128.675781 338.503906 128.480469 C 338.808594 126.613281 338.925781 125.109375 339.007812 124.066406 C 339.03125 123.972656 339.019531 123.886719 338.972656 123.804688 C 338.925781 123.726562 338.855469 123.671875 338.765625 123.648438 C 338.675781 123.621094 338.589844 123.632812 338.507812 123.679688 C 338.425781 123.726562 338.371094 123.792969 338.34375 123.882812 C 331.558594 137.433594 325.050781 140.84375 320.550781 141.125 C 320.171875 141.152344 319.792969 141.136719 319.414062 141.082031 C 319.039062 141.027344 318.671875 140.933594 318.3125 140.800781 C 317.957031 140.667969 317.617188 140.5 317.296875 140.292969 C 316.972656 140.085938 316.679688 139.851562 316.410156 139.582031 C 316.136719 139.3125 315.898438 139.015625 315.691406 138.699219 C 315.484375 138.378906 315.316406 138.039062 315.179688 137.683594 C 315.046875 137.324219 314.949219 136.957031 314.894531 136.582031 C 314.839844 136.203125 314.824219 135.824219 314.847656 135.445312 C 315.691406 116.699219 335.09375 105.640625 335.09375 105.640625 C 343.003906 96.851562 348.40625 80.875 350.152344 75.273438 C 350.167969 75.179688 350.210938 75.105469 350.289062 75.046875 C 350.367188 74.992188 350.449219 74.96875 350.542969 74.984375 C 350.640625 74.996094 350.714844 75.042969 350.773438 75.117188 C 350.828125 75.195312 350.851562 75.28125 350.835938 75.375 C 350.71875 85.425781 348.667969 95.066406 344.691406 104.296875 C 344.613281 104.484375 344.660156 104.632812 344.832031 104.742188 C 345.003906 104.851562 345.15625 104.828125 345.292969 104.675781 C 351.640625 97.613281 358.507812 82.4375 361.136719 64.234375 C 361.183594 64.050781 361.300781 63.957031 361.488281 63.957031 C 361.679688 63.957031 361.796875 64.050781 361.839844 64.234375 C 362.183594 67.6875 361.5 99.800781 339.25 128.761719 Z M 193.332031 142.8125 C 189.398438 143.484375 185.460938 143.484375 181.527344 142.8125 L 181.164062 145.5625 C 181.160156 145.597656 181.175781 145.628906 181.207031 145.652344 C 181.238281 145.671875 181.269531 145.675781 181.304688 145.660156 C 185.433594 144.601562 189.566406 144.601562 193.695312 145.660156 L 193.816406 145.5625 L 193.453125 142.8125 L 193.394531 142.769531 Z M 168.894531 114.3125 L 168.089844 113.308594 C 168.925781 112.824219 169.800781 112.4375 170.722656 112.144531 C 170.832031 112.109375 170.890625 112.152344 170.902344 112.265625 C 170.890625 112.34375 170.890625 112.425781 170.902344 112.503906 C 170.90625 112.980469 171.039062 113.421875 171.289062 113.824219 C 171.542969 114.230469 171.882812 114.539062 172.308594 114.753906 C 173.421875 114.765625 174.523438 114.679688 175.621094 114.492188 C 176.285156 113.988281 176.617188 113.316406 176.625 112.484375 C 176.636719 112.359375 176.636719 112.230469 176.625 112.101562 C 176.625 112.101562 176.625 111.960938 176.785156 111.984375 C 177.726562 112.273438 178.589844 112.714844 179.375 113.308594 L 180.863281 113.167969 C 178.371094 110.738281 171.503906 107.003906 166.121094 113.167969 C 166.945312 113.808594 167.871094 114.230469 168.894531 114.429688 C 168.894531 114.429688 168.972656 114.289062 168.953125 114.269531 Z M 180.941406 126.753906 L 180.824219 126.753906 C 180.828125 127.117188 180.898438 127.46875 181.023438 127.808594 C 181.15625 128.152344 181.335938 128.457031 181.574219 128.734375 C 181.808594 129.011719 182.085938 129.238281 182.402344 129.421875 C 182.71875 129.601562 183.054688 129.722656 183.414062 129.785156 C 184.042969 129.898438 184.609375 130.144531 185.121094 130.527344 C 185.777344 131.09375 186.542969 131.371094 187.410156 131.351562 C 188.28125 131.363281 189.050781 131.089844 189.71875 130.527344 C 190.226562 130.136719 190.796875 129.890625 191.425781 129.785156 C 191.785156 129.722656 192.121094 129.601562 192.4375 129.421875 C 192.753906 129.242188 193.027344 129.015625 193.261719 128.738281 C 193.496094 128.460938 193.679688 128.152344 193.804688 127.8125 C 193.929688 127.46875 193.996094 127.117188 193.996094 126.753906 L 193.875 126.753906 C 193.625 127.203125 193.265625 127.535156 192.800781 127.75 C 192.335938 127.96875 191.851562 128.03125 191.34375 127.9375 C 190.652344 127.746094 190.023438 127.875 189.457031 128.320312 C 189.125 128.585938 188.777344 128.824219 188.414062 129.042969 C 188.097656 129.203125 187.761719 129.28125 187.410156 129.285156 C 187.0625 129.28125 186.734375 129.203125 186.425781 129.042969 C 186.054688 128.824219 185.699219 128.585938 185.359375 128.320312 C 185.101562 128.105469 184.804688 127.960938 184.476562 127.894531 C 184.144531 127.828125 183.816406 127.839844 183.492188 127.9375 C 182.996094 128.011719 182.519531 127.933594 182.066406 127.710938 C 181.617188 127.488281 181.269531 127.15625 181.023438 126.714844 Z M 181.246094 107.667969 C 181.378906 107.65625 181.4375 107.582031 181.425781 107.445312 L 180.761719 103.835938 L 180.640625 103.734375 C 176.886719 103.855469 170.339844 102.429688 168.089844 102.550781 L 167.609375 102.671875 C 167.023438 102.871094 166.476562 103.144531 165.960938 103.484375 C 165.441406 103.824219 164.976562 104.21875 164.558594 104.675781 C 164.140625 105.132812 163.789062 105.632812 163.496094 106.175781 C 163.203125 106.71875 162.980469 107.289062 162.828125 107.886719 C 170.21875 103.492188 174.417969 107.828125 181.324219 107.628906 Z M 194.035156 113.085938 L 195.523438 113.226562 C 196.296875 112.628906 197.15625 112.1875 198.09375 111.902344 C 198.195312 111.902344 198.273438 111.902344 198.253906 112.023438 C 198.242188 112.148438 198.242188 112.277344 198.253906 112.40625 C 198.253906 113.234375 198.582031 113.902344 199.238281 114.410156 C 200.339844 114.597656 201.453125 114.683594 202.570312 114.671875 C 202.996094 114.453125 203.332031 114.144531 203.585938 113.742188 C 203.835938 113.339844 203.96875 112.898438 203.976562 112.425781 C 203.976562 112.425781 203.976562 112.265625 203.976562 112.183594 C 203.976562 112.101562 203.976562 112.042969 204.136719 112.0625 C 205.0625 112.347656 205.9375 112.734375 206.769531 113.226562 L 205.984375 114.230469 C 207.007812 114.027344 207.933594 113.605469 208.757812 112.964844 C 203.453125 106.886719 196.605469 110.617188 194.117188 113.046875 Z M 198.496094 137.734375 C 198.617188 138.855469 196.6875 138.214844 196.6875 138.214844 C 194.925781 137.558594 193.132812 137.011719 191.304688 136.570312 L 190.964844 136.570312 L 187.53125 137.109375 L 187.289062 137.109375 L 183.855469 136.570312 L 183.515625 136.570312 C 181.695312 137.015625 179.90625 137.5625 178.152344 138.214844 C 178.152344 138.214844 176.144531 138.855469 176.34375 137.734375 C 176.546875 136.609375 174.9375 136.589844 175.160156 137.832031 C 175.378906 139.078125 176.183594 139.339844 178.152344 139.460938 C 179.910156 139.480469 181.664062 139.40625 183.414062 139.238281 C 184.734375 139.628906 186.070312 139.9375 187.429688 140.160156 C 188.789062 139.941406 190.128906 139.632812 191.445312 139.238281 C 193.203125 139.40625 194.964844 139.480469 196.726562 139.460938 C 198.734375 139.339844 199.558594 138.796875 199.71875 137.832031 C 199.878906 136.871094 198.453125 136.710938 198.574219 137.691406 Z M 193.59375 107.628906 C 200.484375 107.910156 204.800781 103.492188 211.988281 107.847656 C 211.839844 107.25 211.617188 106.679688 211.324219 106.132812 C 211.03125 105.589844 210.675781 105.089844 210.257812 104.636719 C 209.84375 104.179688 209.375 103.78125 208.859375 103.441406 C 208.34375 103.105469 207.792969 102.832031 207.210938 102.628906 L 206.726562 102.507812 C 204.480469 102.390625 197.933594 103.8125 194.175781 103.695312 L 194.078125 103.792969 L 193.414062 107.40625 C 193.382812 107.488281 193.398438 107.554688 193.464844 107.609375 C 193.53125 107.667969 193.601562 107.671875 193.675781 107.628906 Z M 193.59375 107.628906 "/>
</g>
<g clip-path="url(#clip2)" clip-rule="nonzero">
<path style=" stroke:none;fill-rule:evenodd;fill:rgb(100%,34.118652%,34.118652%);fill-opacity:1;" d="M 73.425781 73.707031 L 187.488281 29.554688 L 301.574219 73.707031 L 301.574219 119.730469 C 304.570312 113.640625 308.359375 108.09375 312.941406 103.089844 L 312.941406 65.820312 L 187.488281 17.269531 L 62.039062 65.820312 L 62.039062 103.011719 C 66.625 108.015625 70.421875 113.5625 73.425781 119.648438 Z M 301.574219 216.207031 L 301.574219 237.242188 C 301.550781 239.09375 301.480469 240.941406 301.367188 242.789062 C 301.25 244.632812 301.09375 246.476562 300.886719 248.316406 C 300.683594 250.15625 300.433594 251.988281 300.140625 253.816406 C 299.847656 255.640625 299.507812 257.460938 299.125 259.269531 C 298.746094 261.082031 298.320312 262.882812 297.847656 264.671875 C 297.378906 266.460938 296.867188 268.238281 296.308594 270.003906 C 295.753906 271.765625 295.152344 273.515625 294.511719 275.253906 C 293.871094 276.988281 293.1875 278.707031 292.460938 280.410156 C 291.734375 282.113281 290.96875 283.796875 290.160156 285.460938 C 289.355469 287.125 288.507812 288.769531 287.617188 290.394531 C 286.730469 292.015625 285.804688 293.617188 284.839844 295.195312 C 283.875 296.777344 282.871094 298.328125 281.828125 299.859375 C 280.789062 301.390625 279.710938 302.894531 278.59375 304.371094 C 277.480469 305.847656 276.332031 307.296875 275.144531 308.71875 C 273.960938 310.140625 272.742188 311.53125 271.488281 312.894531 C 270.234375 314.257812 268.949219 315.585938 267.632812 316.886719 C 266.316406 318.1875 264.964844 319.453125 263.585938 320.6875 C 262.207031 321.921875 260.800781 323.121094 259.359375 324.285156 C 257.921875 325.453125 256.457031 326.582031 254.964844 327.675781 C 253.472656 328.769531 251.953125 329.828125 250.410156 330.847656 C 248.863281 331.867188 247.296875 332.851562 245.703125 333.792969 C 244.113281 334.738281 242.496094 335.640625 240.859375 336.507812 C 239.226562 337.375 237.570312 338.199219 235.890625 338.984375 C 234.214844 339.769531 232.519531 340.511719 230.808594 341.214844 C 229.09375 341.917969 227.367188 342.578125 225.621094 343.195312 C 223.875 343.8125 222.117188 344.386719 220.34375 344.921875 C 218.570312 345.453125 216.789062 345.941406 214.992188 346.390625 C 213.195312 346.835938 211.386719 347.238281 209.570312 347.59375 C 207.753906 347.953125 205.929688 348.265625 204.097656 348.535156 C 202.269531 348.804688 200.429688 349.027344 198.589844 349.210938 C 196.746094 349.390625 194.898438 349.523438 193.050781 349.613281 C 191.203125 349.703125 189.351562 349.75 187.5 349.75 C 185.648438 349.75 183.796875 349.703125 181.949219 349.613281 C 180.101562 349.523438 178.253906 349.390625 176.410156 349.210938 C 174.570312 349.027344 172.730469 348.804688 170.902344 348.535156 C 169.070312 348.265625 167.246094 347.953125 165.429688 347.59375 C 163.613281 347.238281 161.804688 346.835938 160.007812 346.390625 C 158.210938 345.941406 156.425781 345.453125 154.65625 344.921875 C 152.882812 344.386719 151.121094 343.8125 149.378906 343.195312 C 147.632812 342.578125 145.90625 341.917969 144.191406 341.214844 C 142.480469 340.511719 140.785156 339.769531 139.109375 338.984375 C 137.429688 338.199219 135.773438 337.375 134.136719 336.507812 C 132.503906 335.640625 130.886719 334.738281 129.296875 333.792969 C 127.703125 332.851562 126.136719 331.867188 124.589844 330.847656 C 123.046875 329.828125 121.527344 328.769531 120.035156 327.675781 C 118.542969 326.582031 117.078125 325.453125 115.640625 324.285156 C 114.199219 323.121094 112.792969 321.921875 111.414062 320.6875 C 110.035156 319.453125 108.683594 318.1875 107.367188 316.886719 C 106.050781 315.585938 104.765625 314.257812 103.511719 312.894531 C 102.257812 311.53125 101.039062 310.140625 99.855469 308.71875 C 98.667969 307.296875 97.519531 305.847656 96.40625 304.371094 C 95.289062 302.894531 94.210938 301.390625 93.171875 299.859375 C 92.128906 298.328125 91.125 296.777344 90.160156 295.195312 C 89.195312 293.617188 88.269531 292.015625 87.382812 290.394531 C 86.492188 288.769531 85.644531 287.125 84.839844 285.460938 C 84.03125 283.796875 83.265625 282.113281 82.539062 280.410156 C 81.8125 278.707031 81.128906 276.988281 80.488281 275.253906 C 79.847656 273.515625 79.246094 271.765625 78.691406 270.003906 C 78.132812 268.238281 77.621094 266.460938 77.152344 264.671875 C 76.679688 262.882812 76.253906 261.082031 75.871094 259.269531 C 75.492188 257.460938 75.152344 255.640625 74.859375 253.816406 C 74.566406 251.988281 74.316406 250.15625 74.113281 248.316406 C 73.90625 246.476562 73.746094 244.632812 73.632812 242.789062 C 73.519531 240.941406 73.449219 239.09375 73.425781 237.242188 L 73.425781 216.070312 C 69.515625 214.273438 65.722656 212.265625 62.039062 210.046875 L 62.039062 237.164062 C 62.039062 239.214844 62.089844 241.265625 62.1875 243.316406 C 62.289062 245.367188 62.441406 247.414062 62.640625 249.457031 C 62.84375 251.5 63.09375 253.539062 63.398438 255.566406 C 63.699219 257.597656 64.050781 259.621094 64.449219 261.632812 C 64.851562 263.648438 65.300781 265.652344 65.800781 267.640625 C 66.296875 269.632812 66.847656 271.609375 67.441406 273.574219 C 68.039062 275.539062 68.683594 277.488281 69.375 279.421875 C 70.066406 281.355469 70.804688 283.269531 71.59375 285.167969 C 72.378906 287.0625 73.210938 288.9375 74.089844 290.796875 C 74.96875 292.652344 75.890625 294.484375 76.859375 296.292969 C 77.828125 298.105469 78.839844 299.890625 79.894531 301.652344 C 80.949219 303.414062 82.050781 305.144531 83.191406 306.851562 C 84.332031 308.558594 85.515625 310.238281 86.738281 311.886719 C 87.960938 313.535156 89.226562 315.152344 90.527344 316.742188 C 91.832031 318.328125 93.171875 319.882812 94.550781 321.402344 C 95.929688 322.925781 97.347656 324.410156 98.800781 325.863281 C 100.253906 327.3125 101.738281 328.730469 103.261719 330.109375 C 104.785156 331.488281 106.339844 332.828125 107.925781 334.128906 C 109.515625 335.429688 111.132812 336.695312 112.78125 337.917969 C 114.433594 339.140625 116.113281 340.320312 117.820312 341.460938 C 119.527344 342.601562 121.261719 343.699219 123.023438 344.757812 C 124.785156 345.8125 126.574219 346.824219 128.382812 347.792969 C 130.195312 348.757812 132.03125 349.679688 133.886719 350.558594 C 135.742188 351.4375 137.621094 352.269531 139.519531 353.054688 C 141.417969 353.839844 143.332031 354.578125 145.265625 355.269531 C 147.199219 355.960938 149.148438 356.605469 151.117188 357.203125 C 153.082031 357.796875 155.0625 358.34375 157.054688 358.84375 C 159.046875 359.34375 161.050781 359.792969 163.0625 360.191406 C 165.078125 360.59375 167.101562 360.945312 169.132812 361.246094 C 171.164062 361.546875 173.203125 361.796875 175.246094 362 C 177.292969 362.199219 179.339844 362.351562 181.390625 362.453125 C 183.441406 362.550781 185.496094 362.601562 187.550781 362.601562 C 189.605469 362.601562 191.65625 362.550781 193.707031 362.453125 C 195.761719 362.351562 197.808594 362.199219 199.851562 362 C 201.898438 361.796875 203.933594 361.546875 205.964844 361.246094 C 208 360.945312 210.023438 360.59375 212.035156 360.191406 C 214.050781 359.792969 216.054688 359.34375 218.046875 358.84375 C 220.039062 358.34375 222.019531 357.796875 223.984375 357.203125 C 225.949219 356.605469 227.898438 355.960938 229.832031 355.269531 C 231.769531 354.578125 233.683594 353.839844 235.582031 353.054688 C 237.480469 352.269531 239.355469 351.4375 241.214844 350.558594 C 243.070312 349.679688 244.90625 348.757812 246.714844 347.792969 C 248.527344 346.824219 250.3125 345.8125 252.074219 344.757812 C 253.839844 343.699219 255.574219 342.601562 257.28125 341.460938 C 258.988281 340.320312 260.667969 339.140625 262.316406 337.917969 C 263.96875 336.695312 265.585938 335.433594 267.175781 334.128906 C 268.761719 332.828125 270.316406 331.488281 271.839844 330.109375 C 273.359375 328.730469 274.847656 327.3125 276.300781 325.863281 C 277.753906 324.410156 279.167969 322.925781 280.546875 321.402344 C 281.925781 319.882812 283.269531 318.328125 284.570312 316.742188 C 285.875 315.152344 287.136719 313.535156 288.363281 311.886719 C 289.585938 310.238281 290.769531 308.558594 291.910156 306.851562 C 293.050781 305.148438 294.148438 303.414062 295.207031 301.652344 C 296.261719 299.890625 297.273438 298.105469 298.242188 296.292969 C 299.210938 294.484375 300.132812 292.652344 301.011719 290.796875 C 301.890625 288.9375 302.722656 287.0625 303.507812 285.167969 C 304.292969 283.269531 305.03125 281.355469 305.726562 279.421875 C 306.417969 277.488281 307.0625 275.539062 307.65625 273.574219 C 308.253906 271.609375 308.800781 269.632812 309.300781 267.640625 C 309.800781 265.652344 310.25 263.648438 310.648438 261.632812 C 311.050781 259.621094 311.402344 257.597656 311.703125 255.570312 C 312.003906 253.539062 312.257812 251.5 312.457031 249.457031 C 312.660156 247.414062 312.808594 245.367188 312.910156 243.316406 C 313.011719 241.265625 313.0625 239.214844 313.0625 237.164062 L 313.0625 209.988281 C 309.34375 212.222656 305.515625 214.25 301.574219 216.070312 Z M 237.433594 104.777344 L 251.992188 86.070312 C 252.113281 85.929688 251.992188 85.730469 251.773438 85.8125 L 245.265625 89.605469 C 245.1875 89.640625 245.121094 89.628906 245.058594 89.570312 C 245 89.507812 244.988281 89.441406 245.023438 89.363281 L 254.101562 73.730469 C 254.167969 73.628906 254.148438 73.546875 254.050781 73.480469 C 253.949219 73.414062 253.867188 73.429688 253.800781 73.527344 L 238.496094 94.5625 C 238.410156 94.628906 238.402344 94.707031 238.46875 94.792969 C 238.535156 94.878906 238.613281 94.890625 238.699219 94.824219 L 243.558594 92.816406 C 243.632812 92.792969 243.695312 92.808594 243.746094 92.867188 C 243.796875 92.921875 243.808594 92.984375 243.78125 93.054688 L 237.070312 104.394531 C 237.03125 104.617188 237.3125 104.796875 237.433594 104.636719 Z M 282.457031 117.601562 C 282.53125 117.546875 282.550781 117.472656 282.511719 117.386719 C 282.472656 117.300781 282.410156 117.265625 282.316406 117.28125 L 266.089844 123.804688 C 265.984375 123.804688 265.929688 123.859375 265.929688 123.964844 C 265.929688 124.070312 265.984375 124.125 266.089844 124.125 L 269.382812 124.910156 C 269.449219 124.941406 269.480469 124.996094 269.480469 125.070312 C 269.480469 125.140625 269.449219 125.195312 269.382812 125.230469 L 264.84375 128.199219 C 264.769531 128.257812 264.753906 128.328125 264.789062 128.414062 C 264.828125 128.5 264.894531 128.535156 264.984375 128.519531 L 275.851562 124.648438 C 275.929688 124.621094 275.972656 124.5625 275.972656 124.476562 C 275.972656 124.390625 275.929688 124.335938 275.851562 124.304688 L 272.035156 123.5625 C 271.96875 123.53125 271.9375 123.476562 271.9375 123.402344 C 271.9375 123.328125 271.96875 123.277344 272.035156 123.242188 Z M 287.9375 78.945312 L 239.5625 117.261719 C 239.414062 117.359375 239.375 117.488281 239.445312 117.652344 C 239.511719 117.8125 239.628906 117.878906 239.804688 117.84375 L 249.84375 116.820312 C 249.996094 116.808594 250.105469 116.875 250.171875 117.007812 C 250.238281 117.140625 250.222656 117.265625 250.125 117.382812 L 241.046875 127.054688 C 240.980469 127.113281 240.941406 127.1875 240.933594 127.277344 C 240.929688 127.367188 240.953125 127.445312 241.011719 127.515625 C 241.070312 127.582031 241.140625 127.621094 241.230469 127.628906 C 241.320312 127.640625 241.402344 127.613281 241.46875 127.558594 L 268.421875 108.773438 C 268.554688 108.664062 268.585938 108.53125 268.515625 108.371094 C 268.449219 108.214844 268.328125 108.148438 268.160156 108.167969 L 254.421875 111.5625 C 254.246094 111.628906 254.113281 111.582031 254.023438 111.414062 C 253.933594 111.246094 253.964844 111.109375 254.121094 111 L 288.261719 79.308594 C 288.34375 79.191406 288.347656 79.070312 288.269531 78.949219 C 288.191406 78.828125 288.082031 78.78125 287.941406 78.804688 Z M 125.117188 116.960938 L 135.15625 117.984375 C 135.320312 118.003906 135.433594 117.933594 135.492188 117.777344 C 135.550781 117.625 135.515625 117.496094 135.378906 117.402344 L 87 78.945312 C 86.929688 78.890625 86.851562 78.863281 86.761719 78.871094 C 86.671875 78.878906 86.597656 78.917969 86.539062 78.988281 C 86.480469 79.054688 86.453125 79.136719 86.460938 79.226562 C 86.46875 79.316406 86.507812 79.390625 86.578125 79.449219 L 120.816406 111.140625 C 120.972656 111.25 121.003906 111.386719 120.917969 111.554688 C 120.828125 111.722656 120.695312 111.769531 120.515625 111.703125 L 106.78125 108.308594 C 106.605469 108.273438 106.476562 108.335938 106.402344 108.5 C 106.324219 108.664062 106.359375 108.800781 106.5 108.910156 L 133.449219 127.699219 C 133.609375 127.789062 133.753906 127.765625 133.875 127.628906 C 133.996094 127.488281 134.003906 127.34375 133.890625 127.195312 L 124.792969 117.523438 C 124.695312 117.476562 124.628906 117.40625 124.59375 117.304688 C 124.554688 117.207031 124.558594 117.105469 124.601562 117.011719 C 124.648438 116.914062 124.71875 116.847656 124.820312 116.808594 C 124.921875 116.773438 125.019531 116.777344 125.117188 116.820312 Z M 137.847656 104.578125 L 131.121094 93.238281 C 131.089844 93.167969 131.101562 93.101562 131.152344 93.046875 C 131.207031 92.992188 131.269531 92.972656 131.339844 92.996094 L 136.199219 95.003906 C 136.28125 95.035156 136.347656 95.015625 136.402344 94.953125 C 136.460938 94.886719 136.464844 94.816406 136.421875 94.742188 L 121.179688 73.566406 C 121.058594 73.386719 120.777344 73.566406 120.898438 73.769531 L 129.976562 89.402344 C 130.011719 89.480469 130 89.550781 129.941406 89.609375 C 129.878906 89.667969 129.8125 89.679688 129.734375 89.644531 L 123.226562 85.75 C 123.066406 85.75 122.886719 85.871094 123.007812 86.011719 L 137.546875 104.71875 C 137.640625 104.816406 137.738281 104.820312 137.835938 104.726562 C 137.9375 104.632812 137.941406 104.535156 137.847656 104.4375 Z M 99.070312 124.304688 C 98.988281 124.335938 98.949219 124.390625 98.949219 124.476562 C 98.949219 124.5625 98.988281 124.621094 99.070312 124.648438 L 109.933594 128.519531 C 110.035156 128.558594 110.109375 128.527344 110.15625 128.433594 C 110.207031 128.335938 110.183594 128.257812 110.09375 128.199219 L 105.554688 125.230469 C 105.492188 125.195312 105.457031 125.140625 105.457031 125.070312 C 105.457031 124.996094 105.492188 124.941406 105.554688 124.910156 L 108.847656 124.125 C 108.957031 124.125 109.007812 124.070312 109.007812 123.964844 C 109.007812 123.859375 108.957031 123.804688 108.847656 123.804688 L 92.621094 117.28125 C 92.53125 117.265625 92.464844 117.300781 92.425781 117.386719 C 92.390625 117.472656 92.40625 117.546875 92.480469 117.601562 L 102.90625 123.242188 C 102.96875 123.277344 103.003906 123.328125 103.003906 123.402344 C 103.003906 123.476562 102.96875 123.53125 102.90625 123.5625 Z M 99.070312 124.304688 "/>
</g>
</g>
</svg>
