<svg height="464pt" viewBox="0 0 464.00015 464" width="464pt" xmlns="http://www.w3.org/2000/svg"><path d="m56 320v-296c0-13.253906 10.746094-24 24-24h320c13.253906 0 24 10.746094 24 24v416c0 13.253906-10.746094 24-24 24h-248zm0 0" fill="#0093ba"/><g fill="#ffc117"><path d="m280 376c13.253906 0 24 10.746094 24 24s-10.746094 24-24 24-24-10.746094-24-24 10.746094-24 24-24zm0 0"/><path d="m360 296c13.253906 0 24 10.746094 24 24v80c0 13.253906-10.746094 24-24 24s-24-10.746094-24-24v-80c0-13.253906 10.746094-24 24-24zm0 0"/><path d="m280 296c13.253906 0 24 10.746094 24 24s-10.746094 24-24 24-24-10.746094-24-24 10.746094-24 24-24zm0 0"/><path d="m280 216c13.253906 0 24 10.746094 24 24s-10.746094 24-24 24-24-10.746094-24-24 10.746094-24 24-24zm0 0"/><path d="m200 216c13.253906 0 24 10.746094 24 24s-10.746094 24-24 24-24-10.746094-24-24 10.746094-24 24-24zm0 0"/><path d="m360 216c13.253906 0 24 10.746094 24 24s-10.746094 24-24 24-24-10.746094-24-24 10.746094-24 24-24zm0 0"/><path d="m280 136c13.253906 0 24 10.746094 24 24s-10.746094 24-24 24-24-10.746094-24-24 10.746094-24 24-24zm0 0"/><path d="m360 136c13.253906 0 24 10.746094 24 24s-10.746094 24-24 24-24-10.746094-24-24 10.746094-24 24-24zm0 0"/><path d="m120 136h80c13.253906 0 24 10.746094 24 24s-10.746094 24-24 24h-80c-13.253906 0-24-10.746094-24-24s10.746094-24 24-24zm0 0"/></g><path d="m96 40h288v64h-288zm0 0" fill="#ccdde6"/><path d="m344 64h16v16h-16zm0 0" fill="#abbac2"/><path d="m312 64h16v16h-16zm0 0" fill="#abbac2"/><path d="m280 64h16v16h-16zm0 0" fill="#abbac2"/><path d="m136 344h-16v-29.75c-.070312-25.570312 10.09375-50.105469 28.222656-68.136719l11.3125 11.3125c-15.117187 15.035157-23.59375 35.496094-23.535156 56.824219zm0 0" fill="#8d6339"/><path d="m90.625 308c-18.769531 0-35.925781 10.601562-44.320312 27.382812-4.144532 8.296876-6.304688 17.445313-6.304688 26.722657-.003906 14.441406 3.058594 28.722656 8.984375 41.894531l17.832031 39.625c5.605469 12.410156 17.964844 20.386719 31.582032 20.375 3.722656 0 7.417968-.601562 10.945312-1.777344l18.65625-6.222656 18.671875 6.222656c3.523437 1.175782 7.214844 1.777344 10.929687 1.777344 13.621094 0 25.972657-7.988281 31.566407-20.40625l17.847656-39.59375c5.925781-13.171875 8.988281-27.453125 8.984375-41.894531 0-9.277344-2.160156-18.425781-6.304688-26.722657-8.394531-16.78125-25.550781-27.382812-44.320312-27.382812-11.257812-.003906-22.183594 3.824219-30.976562 10.855469l-6.398438 5.144531-6.398438-5.144531c-8.792968-7.03125-19.71875-10.859375-30.976562-10.855469zm0 0" fill="#ec4042"/><path d="m85.417969 241.40625c25.726562.007812 46.582031 20.863281 46.582031 46.59375-25.730469 0-46.59375-20.859375-46.59375-46.59375zm0 0" fill="#8ac03f"/><path d="m26.398438 451.28125-13.894532-30.90625c-8.269531-18.3125-12.535156-38.179688-12.503906-58.269531.0195312-15.480469 3.621094-30.746094 10.519531-44.601563 2.015625-4.042968 4.335938-7.929687 6.9375-11.625l13.085938 9.199219c-2.132813 3.058594-4.042969 6.265625-5.710938 9.601563-5.785156 11.628906-8.808593 24.4375-8.832031 37.425781-.027344 17.832031 3.761719 35.460937 11.105469 51.710937l13.894531 30.902344zm0 0" fill="#ccdde6"/><path d="m448 64h16v176h-16zm0 0" fill="#ccdde6"/><path d="m448 256h16v16h-16zm0 0" fill="#ccdde6"/></svg>