<?xml version="1.0" encoding="iso-8859-1"?>
<!-- Generator: Adobe Illustrator 19.0.0, SVG Export Plug-In . SVG Version: 6.00 Build 0)  -->
<svg version="1.1" id="Capa_1" xmlns="http://www.w3.org/2000/svg" xmlns:xlink="http://www.w3.org/1999/xlink" x="0px" y="0px"
	 viewBox="0 0 512 512" style="enable-background:new 0 0 512 512;" xml:space="preserve">
<path style="fill:#5A5D61;" d="M397.241,512H114.759c-29.255,0-52.966-23.711-52.966-52.966V176.552
	c0-48.755,39.521-88.276,88.276-88.276h211.862c48.755,0,88.276,39.521,88.276,88.276v282.483
	C450.207,488.289,426.496,512,397.241,512z"/>
<path style="fill:#62666A;" d="M361.931,90.006H150.069c-48.755,0-88.276,39.521-88.276,88.276v247.137
	c0,33.192,26.906,60.098,60.098,60.098h268.217c33.201,0,60.098-26.906,60.098-60.098V178.282
	C450.207,129.527,410.686,90.006,361.931,90.006z"/>
<rect x="61.793" y="176.552" style="fill:#C7463B;" width="335.448" height="282.483"/>
<rect x="158.897" y="41.931" style="fill:#62666A;" width="194.207" height="54.069"/>
<rect x="158.897" y="52.966" style="fill:#5A5D61;" width="194.207" height="17.655"/>
<path style="fill:#F6BB92;" d="M194.207,344.276c0,0,25.927-34.569,60.681-1.095l0,0c7.256-13.347,19.818-22.21,34.145-22.21
	c3.849,0,7.574,0.636,11.105,1.827v3.822v79.448c0,0-70.621,52.966-167.724-37.429c0,0-26.483-59.674,61.793-121.468l26.483-35.31
	l52.966,8.828v44.138l-10.293,15.448c-4.599,6.894-12.341,11.034-20.63,11.034H220.69c0,0-10.258,1.677-13.462,12.412
	C203.034,317.793,194.207,344.276,194.207,344.276"/>
<path style="fill:#FDC9A6;" d="M254.888,343.181L254.888,343.181c-34.754-33.474-60.681,1.095-60.681,1.095l0,0v-3.928
	c0-8.951,1.51-17.814,4.467-26.262c2.816-8.042,6.338-18.335,8.554-25.777c3.204-10.743,13.462-12.42,13.462-12.42h22.042
	c8.289,0,16.022-4.14,20.621-11.034l10.302-15.448V220.69l-52.966-8.828l-26.483,35.31c-49.302,34.516-62.799,68.352-65.112,91.516
	c0.953,9.154,3.319,14.53,3.319,14.53c97.103,90.394,167.724,37.429,167.724,37.429v-64.026v-3.822
	c-3.531-1.192-7.256-1.827-11.105-1.827C274.706,320.971,262.135,329.834,254.888,343.181z"/>
<path style="fill:#F6BB92;" d="M238.345,264.828c0.918,0,1.863-0.15,2.79-0.459l26.483-8.828c0.397-0.132,0.786-0.282,1.156-0.477
	l4.882-2.436v-19.738l-12.217,6.109l-25.891,8.633c-4.617,1.536-7.124,6.532-5.579,11.167
	C231.203,262.488,234.646,264.828,238.345,264.828z"/>
<rect x="123.586" style="fill:#DC4D41;" width="264.828" height="52.966"/>
<rect x="123.586" y="26.483" style="fill:#C7463B;" width="264.828" height="26.483"/>
<g>
</g>
<g>
</g>
<g>
</g>
<g>
</g>
<g>
</g>
<g>
</g>
<g>
</g>
<g>
</g>
<g>
</g>
<g>
</g>
<g>
</g>
<g>
</g>
<g>
</g>
<g>
</g>
<g>
</g>
</svg>
